solid OpenSCAD_Model
  facet normal -1 0 0
    outer loop
      vertex 0 0 0
      vertex 0 35 8
      vertex 0 35 0
    endloop
  endfacet
  facet normal -1 -0 0
    outer loop
      vertex 0 35 8
      vertex 0 0 0
      vertex 0 0 8
    endloop
  endfacet
  facet normal 0 0 1
    outer loop
      vertex 8.08203 26.7259 8
      vertex 12 35 8
      vertex 8.1 27 8
    endloop
  endfacet
  facet normal 0 0 1
    outer loop
      vertex 12 35 8
      vertex 8.08203 27.2741 8
      vertex 8.1 27 8
    endloop
  endfacet
  facet normal 0 0 1
    outer loop
      vertex 12 35 8
      vertex 8.02844 27.5435 8
      vertex 8.08203 27.2741 8
    endloop
  endfacet
  facet normal 0 0 1
    outer loop
      vertex 12 35 8
      vertex 7.94015 27.8036 8
      vertex 8.02844 27.5435 8
    endloop
  endfacet
  facet normal 0 0 1
    outer loop
      vertex 12 35 8
      vertex 7.81865 28.05 8
      vertex 7.94015 27.8036 8
    endloop
  endfacet
  facet normal 0 0 1
    outer loop
      vertex 12 35 8
      vertex 7.66604 28.2784 8
      vertex 7.81865 28.05 8
    endloop
  endfacet
  facet normal 0 0 1
    outer loop
      vertex 12 35 8
      vertex 7.48492 28.4849 8
      vertex 7.66604 28.2784 8
    endloop
  endfacet
  facet normal 0 0 1
    outer loop
      vertex 12 35 8
      vertex 7.2784 28.666 8
      vertex 7.48492 28.4849 8
    endloop
  endfacet
  facet normal 0 0 1
    outer loop
      vertex 12 35 8
      vertex 7.05 28.8187 8
      vertex 7.2784 28.666 8
    endloop
  endfacet
  facet normal 0 0 1
    outer loop
      vertex 12 35 8
      vertex 6.80363 28.9401 8
      vertex 7.05 28.8187 8
    endloop
  endfacet
  facet normal 0 0 1
    outer loop
      vertex 12 35 8
      vertex 6.54352 29.0284 8
      vertex 6.80363 28.9401 8
    endloop
  endfacet
  facet normal 0 0 1
    outer loop
      vertex 12 35 8
      vertex 6.2741 29.082 8
      vertex 6.54352 29.0284 8
    endloop
  endfacet
  facet normal 0 0 1
    outer loop
      vertex 12 35 8
      vertex 6 29.1 8
      vertex 6.2741 29.082 8
    endloop
  endfacet
  facet normal -0 0 1
    outer loop
      vertex 0 35 8
      vertex 6 29.1 8
      vertex 12 35 8
    endloop
  endfacet
  facet normal 0 0 1
    outer loop
      vertex 6 29.1 8
      vertex 0 35 8
      vertex 5.72589 29.082 8
    endloop
  endfacet
  facet normal 0 0 1
    outer loop
      vertex 5.72589 29.082 8
      vertex 0 35 8
      vertex 5.45648 29.0284 8
    endloop
  endfacet
  facet normal 0 0 1
    outer loop
      vertex 5.45648 29.0284 8
      vertex 0 35 8
      vertex 5.19636 28.9401 8
    endloop
  endfacet
  facet normal 0 0 1
    outer loop
      vertex 5.19636 28.9401 8
      vertex 0 35 8
      vertex 4.95 28.8187 8
    endloop
  endfacet
  facet normal 0 0 1
    outer loop
      vertex 3.91796 27.2741 8
      vertex 0 35 8
      vertex 3.9 27 8
    endloop
  endfacet
  facet normal 0 0 1
    outer loop
      vertex 3.97156 27.5435 8
      vertex 0 35 8
      vertex 3.91796 27.2741 8
    endloop
  endfacet
  facet normal 0 0 1
    outer loop
      vertex 4.05985 27.8036 8
      vertex 0 35 8
      vertex 3.97156 27.5435 8
    endloop
  endfacet
  facet normal 0 0 1
    outer loop
      vertex 4.18135 28.05 8
      vertex 0 35 8
      vertex 4.05985 27.8036 8
    endloop
  endfacet
  facet normal 0 0 1
    outer loop
      vertex 4.33396 28.2784 8
      vertex 0 35 8
      vertex 4.18135 28.05 8
    endloop
  endfacet
  facet normal 0 0 1
    outer loop
      vertex 4.51508 28.4849 8
      vertex 0 35 8
      vertex 4.33396 28.2784 8
    endloop
  endfacet
  facet normal 0 0 1
    outer loop
      vertex 4.7216 28.666 8
      vertex 0 35 8
      vertex 4.51508 28.4849 8
    endloop
  endfacet
  facet normal 0 0 1
    outer loop
      vertex 4.95 28.8187 8
      vertex 0 35 8
      vertex 4.7216 28.666 8
    endloop
  endfacet
  facet normal 0 0 1
    outer loop
      vertex 35 12 8
      vertex 29.1 6 8
      vertex 35 0 8
    endloop
  endfacet
  facet normal 0 0 1
    outer loop
      vertex 35 12 8
      vertex 29.082 6.2741 8
      vertex 29.1 6 8
    endloop
  endfacet
  facet normal 0 0 1
    outer loop
      vertex 35 12 8
      vertex 29.0284 6.54352 8
      vertex 29.082 6.2741 8
    endloop
  endfacet
  facet normal 0 0 1
    outer loop
      vertex 35 12 8
      vertex 28.9401 6.80363 8
      vertex 29.0284 6.54352 8
    endloop
  endfacet
  facet normal 0 0 1
    outer loop
      vertex 35 12 8
      vertex 28.8187 7.05 8
      vertex 28.9401 6.80363 8
    endloop
  endfacet
  facet normal 0 0 1
    outer loop
      vertex 35 12 8
      vertex 28.666 7.2784 8
      vertex 28.8187 7.05 8
    endloop
  endfacet
  facet normal 0 0 1
    outer loop
      vertex 35 12 8
      vertex 28.4849 7.48492 8
      vertex 28.666 7.2784 8
    endloop
  endfacet
  facet normal 0 0 1
    outer loop
      vertex 35 12 8
      vertex 28.2784 7.66604 8
      vertex 28.4849 7.48492 8
    endloop
  endfacet
  facet normal 0 0 1
    outer loop
      vertex 35 12 8
      vertex 28.05 7.81865 8
      vertex 28.2784 7.66604 8
    endloop
  endfacet
  facet normal 0 0 1
    outer loop
      vertex 35 12 8
      vertex 27.8036 7.94015 8
      vertex 28.05 7.81865 8
    endloop
  endfacet
  facet normal 0 0 1
    outer loop
      vertex 35 12 8
      vertex 27.5435 8.02844 8
      vertex 27.8036 7.94015 8
    endloop
  endfacet
  facet normal 0 0 1
    outer loop
      vertex 35 12 8
      vertex 27.2741 8.08203 8
      vertex 27.5435 8.02844 8
    endloop
  endfacet
  facet normal 0 0 1
    outer loop
      vertex 35 12 8
      vertex 27 8.1 8
      vertex 27.2741 8.08203 8
    endloop
  endfacet
  facet normal 0 0 1
    outer loop
      vertex 35 12 8
      vertex 26.7259 8.08203 8
      vertex 27 8.1 8
    endloop
  endfacet
  facet normal -0 0 1
    outer loop
      vertex 12 12 8
      vertex 26.7259 8.08203 8
      vertex 35 12 8
    endloop
  endfacet
  facet normal 0 0 1
    outer loop
      vertex 26.7259 8.08203 8
      vertex 12 12 8
      vertex 26.4565 8.02844 8
    endloop
  endfacet
  facet normal 0 0 1
    outer loop
      vertex 24.918 6.2741 8
      vertex 12 12 8
      vertex 24.9 6 8
    endloop
  endfacet
  facet normal 0 0 1
    outer loop
      vertex 24.9716 6.54352 8
      vertex 12 12 8
      vertex 24.918 6.2741 8
    endloop
  endfacet
  facet normal 0 0 1
    outer loop
      vertex 25.0599 6.80363 8
      vertex 12 12 8
      vertex 24.9716 6.54352 8
    endloop
  endfacet
  facet normal 0 0 1
    outer loop
      vertex 25.1813 7.05 8
      vertex 12 12 8
      vertex 25.0599 6.80363 8
    endloop
  endfacet
  facet normal 0 0 1
    outer loop
      vertex 25.334 7.2784 8
      vertex 12 12 8
      vertex 25.1813 7.05 8
    endloop
  endfacet
  facet normal 0 0 1
    outer loop
      vertex 25.5151 7.48492 8
      vertex 12 12 8
      vertex 25.334 7.2784 8
    endloop
  endfacet
  facet normal 0 0 1
    outer loop
      vertex 25.7216 7.66604 8
      vertex 12 12 8
      vertex 25.5151 7.48492 8
    endloop
  endfacet
  facet normal 0 0 1
    outer loop
      vertex 25.95 7.81865 8
      vertex 12 12 8
      vertex 25.7216 7.66604 8
    endloop
  endfacet
  facet normal 0 0 1
    outer loop
      vertex 26.1964 7.94015 8
      vertex 12 12 8
      vertex 25.95 7.81865 8
    endloop
  endfacet
  facet normal 0 0 1
    outer loop
      vertex 26.4565 8.02844 8
      vertex 12 12 8
      vertex 26.1964 7.94015 8
    endloop
  endfacet
  facet normal -0 0 1
    outer loop
      vertex 29.082 5.72589 8
      vertex 35 0 8
      vertex 29.1 6 8
    endloop
  endfacet
  facet normal -0 0 1
    outer loop
      vertex 29.0284 5.45648 8
      vertex 35 0 8
      vertex 29.082 5.72589 8
    endloop
  endfacet
  facet normal -0 0 1
    outer loop
      vertex 28.9401 5.19636 8
      vertex 35 0 8
      vertex 29.0284 5.45648 8
    endloop
  endfacet
  facet normal -0 0 1
    outer loop
      vertex 28.8187 4.95 8
      vertex 35 0 8
      vertex 28.9401 5.19636 8
    endloop
  endfacet
  facet normal -0 0 1
    outer loop
      vertex 28.666 4.7216 8
      vertex 35 0 8
      vertex 28.8187 4.95 8
    endloop
  endfacet
  facet normal -0 0 1
    outer loop
      vertex 28.4849 4.51508 8
      vertex 35 0 8
      vertex 28.666 4.7216 8
    endloop
  endfacet
  facet normal -0 0 1
    outer loop
      vertex 28.2784 4.33396 8
      vertex 35 0 8
      vertex 28.4849 4.51508 8
    endloop
  endfacet
  facet normal -0 0 1
    outer loop
      vertex 28.05 4.18135 8
      vertex 35 0 8
      vertex 28.2784 4.33396 8
    endloop
  endfacet
  facet normal -0 0 1
    outer loop
      vertex 27.8036 4.05985 8
      vertex 35 0 8
      vertex 28.05 4.18135 8
    endloop
  endfacet
  facet normal -0 0 1
    outer loop
      vertex 27.5435 3.97156 8
      vertex 35 0 8
      vertex 27.8036 4.05985 8
    endloop
  endfacet
  facet normal -0 0 1
    outer loop
      vertex 27.2741 3.91796 8
      vertex 35 0 8
      vertex 27.5435 3.97156 8
    endloop
  endfacet
  facet normal -0 0 1
    outer loop
      vertex 27 3.9 8
      vertex 35 0 8
      vertex 27.2741 3.91796 8
    endloop
  endfacet
  facet normal 0 0 1
    outer loop
      vertex 26.7259 3.91796 8
      vertex 35 0 8
      vertex 27 3.9 8
    endloop
  endfacet
  facet normal 0 0 1
    outer loop
      vertex 26.4565 3.97156 8
      vertex 35 0 8
      vertex 26.7259 3.91796 8
    endloop
  endfacet
  facet normal 0 0 1
    outer loop
      vertex 0 0 8
      vertex 26.4565 3.97156 8
      vertex 26.1964 4.05985 8
    endloop
  endfacet
  facet normal 0 0 1
    outer loop
      vertex 12 12 8
      vertex 24.918 5.72589 8
      vertex 24.9 6 8
    endloop
  endfacet
  facet normal 0 0 1
    outer loop
      vertex 12 12 8
      vertex 24.9716 5.45648 8
      vertex 24.918 5.72589 8
    endloop
  endfacet
  facet normal 0 0 1
    outer loop
      vertex 12 12 8
      vertex 25.0599 5.19636 8
      vertex 24.9716 5.45648 8
    endloop
  endfacet
  facet normal 0 0 1
    outer loop
      vertex 12 12 8
      vertex 25.1813 4.95 8
      vertex 25.0599 5.19636 8
    endloop
  endfacet
  facet normal 0 0 1
    outer loop
      vertex 0 0 8
      vertex 25.1813 4.95 8
      vertex 12 12 8
    endloop
  endfacet
  facet normal 0 0 1
    outer loop
      vertex 25.1813 4.95 8
      vertex 0 0 8
      vertex 25.334 4.7216 8
    endloop
  endfacet
  facet normal 0 0 1
    outer loop
      vertex 25.334 4.7216 8
      vertex 0 0 8
      vertex 25.5151 4.51508 8
    endloop
  endfacet
  facet normal 0 0 1
    outer loop
      vertex 25.5151 4.51508 8
      vertex 0 0 8
      vertex 25.7216 4.33396 8
    endloop
  endfacet
  facet normal 0 0 1
    outer loop
      vertex 12 35 8
      vertex 8.08203 26.7259 8
      vertex 12 12 8
    endloop
  endfacet
  facet normal -0 0 1
    outer loop
      vertex 8.02844 26.4565 8
      vertex 12 12 8
      vertex 8.08203 26.7259 8
    endloop
  endfacet
  facet normal -0 0 1
    outer loop
      vertex 7.94015 26.1964 8
      vertex 12 12 8
      vertex 8.02844 26.4565 8
    endloop
  endfacet
  facet normal -0 0 1
    outer loop
      vertex 7.81865 25.95 8
      vertex 12 12 8
      vertex 7.94015 26.1964 8
    endloop
  endfacet
  facet normal -0 0 1
    outer loop
      vertex 7.66604 25.7216 8
      vertex 12 12 8
      vertex 7.81865 25.95 8
    endloop
  endfacet
  facet normal -0 0 1
    outer loop
      vertex 7.48492 25.5151 8
      vertex 12 12 8
      vertex 7.66604 25.7216 8
    endloop
  endfacet
  facet normal -0 0 1
    outer loop
      vertex 7.2784 25.334 8
      vertex 12 12 8
      vertex 7.48492 25.5151 8
    endloop
  endfacet
  facet normal -0 0 1
    outer loop
      vertex 7.05 25.1813 8
      vertex 12 12 8
      vertex 7.2784 25.334 8
    endloop
  endfacet
  facet normal -0 0 1
    outer loop
      vertex 6.80363 25.0599 8
      vertex 12 12 8
      vertex 7.05 25.1813 8
    endloop
  endfacet
  facet normal -0 0 1
    outer loop
      vertex 6.54352 24.9716 8
      vertex 12 12 8
      vertex 6.80363 25.0599 8
    endloop
  endfacet
  facet normal -0 0 1
    outer loop
      vertex 6.2741 24.918 8
      vertex 12 12 8
      vertex 6.54352 24.9716 8
    endloop
  endfacet
  facet normal -0 0 1
    outer loop
      vertex 6 24.9 8
      vertex 12 12 8
      vertex 6.2741 24.918 8
    endloop
  endfacet
  facet normal 0 0 1
    outer loop
      vertex 5.72589 24.918 8
      vertex 12 12 8
      vertex 6 24.9 8
    endloop
  endfacet
  facet normal 0 0 1
    outer loop
      vertex 5.45648 24.9716 8
      vertex 12 12 8
      vertex 5.72589 24.918 8
    endloop
  endfacet
  facet normal 0 0 1
    outer loop
      vertex 5.19636 25.0599 8
      vertex 12 12 8
      vertex 5.45648 24.9716 8
    endloop
  endfacet
  facet normal 0 0 1
    outer loop
      vertex 4.95 25.1813 8
      vertex 12 12 8
      vertex 5.19636 25.0599 8
    endloop
  endfacet
  facet normal 0 0 1
    outer loop
      vertex 0 0 8
      vertex 4.95 25.1813 8
      vertex 4.7216 25.334 8
    endloop
  endfacet
  facet normal 0 0 1
    outer loop
      vertex 0 0 8
      vertex 4.7216 25.334 8
      vertex 4.51508 25.5151 8
    endloop
  endfacet
  facet normal 0 0 1
    outer loop
      vertex 0 0 8
      vertex 4.51508 25.5151 8
      vertex 4.33396 25.7216 8
    endloop
  endfacet
  facet normal 0 0 1
    outer loop
      vertex 0 0 8
      vertex 4.33396 25.7216 8
      vertex 4.18135 25.95 8
    endloop
  endfacet
  facet normal 0 0 1
    outer loop
      vertex 0 35 8
      vertex 3.91796 26.7259 8
      vertex 3.9 27 8
    endloop
  endfacet
  facet normal 0 0 1
    outer loop
      vertex 0 35 8
      vertex 3.97156 26.4565 8
      vertex 3.91796 26.7259 8
    endloop
  endfacet
  facet normal 0 0 1
    outer loop
      vertex 0 0 8
      vertex 3.97156 26.4565 8
      vertex 0 35 8
    endloop
  endfacet
  facet normal 0 0 1
    outer loop
      vertex 26.4565 3.97156 8
      vertex 0 0 8
      vertex 35 0 8
    endloop
  endfacet
  facet normal 0 0 1
    outer loop
      vertex 25.95 4.18135 8
      vertex 0 0 8
      vertex 26.1964 4.05985 8
    endloop
  endfacet
  facet normal 0 0 1
    outer loop
      vertex 25.7216 4.33396 8
      vertex 0 0 8
      vertex 25.95 4.18135 8
    endloop
  endfacet
  facet normal 0 0 1
    outer loop
      vertex 4.95 25.1813 8
      vertex 0 0 8
      vertex 12 12 8
    endloop
  endfacet
  facet normal 0 0 1
    outer loop
      vertex 4.05985 26.1964 8
      vertex 0 0 8
      vertex 4.18135 25.95 8
    endloop
  endfacet
  facet normal 0 0 1
    outer loop
      vertex 3.97156 26.4565 8
      vertex 0 0 8
      vertex 4.05985 26.1964 8
    endloop
  endfacet
  facet normal 1 -0 0
    outer loop
      vertex 35 0 8
      vertex 35 12 0
      vertex 35 12 8
    endloop
  endfacet
  facet normal 1 0 0
    outer loop
      vertex 35 12 0
      vertex 35 0 8
      vertex 35 0 0
    endloop
  endfacet
  facet normal 0 0 -1
    outer loop
      vertex 35 0 0
      vertex 29.1 6 0
      vertex 35 12 0
    endloop
  endfacet
  facet normal 0 0 -1
    outer loop
      vertex 35 0 0
      vertex 29.082 5.72589 0
      vertex 29.1 6 0
    endloop
  endfacet
  facet normal 0 0 -1
    outer loop
      vertex 35 0 0
      vertex 29.0284 5.45648 0
      vertex 29.082 5.72589 0
    endloop
  endfacet
  facet normal 0 0 -1
    outer loop
      vertex 35 0 0
      vertex 28.9401 5.19636 0
      vertex 29.0284 5.45648 0
    endloop
  endfacet
  facet normal 0 0 -1
    outer loop
      vertex 35 0 0
      vertex 28.8187 4.95 0
      vertex 28.9401 5.19636 0
    endloop
  endfacet
  facet normal 0 0 -1
    outer loop
      vertex 35 0 0
      vertex 28.666 4.7216 0
      vertex 28.8187 4.95 0
    endloop
  endfacet
  facet normal 0 0 -1
    outer loop
      vertex 35 0 0
      vertex 28.4849 4.51508 0
      vertex 28.666 4.7216 0
    endloop
  endfacet
  facet normal 0 0 -1
    outer loop
      vertex 35 0 0
      vertex 28.2784 4.33396 0
      vertex 28.4849 4.51508 0
    endloop
  endfacet
  facet normal 0 0 -1
    outer loop
      vertex 35 0 0
      vertex 28.05 4.18135 0
      vertex 28.2784 4.33396 0
    endloop
  endfacet
  facet normal 0 0 -1
    outer loop
      vertex 35 0 0
      vertex 27.8036 4.05985 0
      vertex 28.05 4.18135 0
    endloop
  endfacet
  facet normal 0 0 -1
    outer loop
      vertex 35 0 0
      vertex 27.5435 3.97156 0
      vertex 27.8036 4.05985 0
    endloop
  endfacet
  facet normal 0 0 -1
    outer loop
      vertex 35 0 0
      vertex 27.2741 3.91796 0
      vertex 27.5435 3.97156 0
    endloop
  endfacet
  facet normal 0 0 -1
    outer loop
      vertex 35 0 0
      vertex 27 3.9 0
      vertex 27.2741 3.91796 0
    endloop
  endfacet
  facet normal 0 0 -1
    outer loop
      vertex 35 0 0
      vertex 26.7259 3.91796 0
      vertex 27 3.9 0
    endloop
  endfacet
  facet normal 0 0 -1
    outer loop
      vertex 35 0 0
      vertex 26.4565 3.97156 0
      vertex 26.7259 3.91796 0
    endloop
  endfacet
  facet normal 0 0 -1
    outer loop
      vertex 0 0 0
      vertex 26.4565 3.97156 0
      vertex 35 0 0
    endloop
  endfacet
  facet normal 0 0 -1
    outer loop
      vertex 12 8.46447 0
      vertex 24.9 6 0
      vertex 24.918 5.72589 0
    endloop
  endfacet
  facet normal 0 0 -1
    outer loop
      vertex 12 8.46447 0
      vertex 24.918 5.72589 0
      vertex 24.9716 5.45648 0
    endloop
  endfacet
  facet normal 0 0 -1
    outer loop
      vertex 12 8.46447 0
      vertex 24.9716 5.45648 0
      vertex 25.0599 5.19636 0
    endloop
  endfacet
  facet normal 0 0 -1
    outer loop
      vertex 12 8.46447 0
      vertex 25.0599 5.19636 0
      vertex 25.1813 4.95 0
    endloop
  endfacet
  facet normal 0 0 -1
    outer loop
      vertex 12 8.46447 0
      vertex 25.1813 4.95 0
      vertex 25.334 4.7216 0
    endloop
  endfacet
  facet normal 0 0 -1
    outer loop
      vertex 12 8.46447 0
      vertex 25.334 4.7216 0
      vertex 25.5151 4.51508 0
    endloop
  endfacet
  facet normal 0 0 -1
    outer loop
      vertex 0 0 0
      vertex 25.5151 4.51508 0
      vertex 25.7216 4.33396 0
    endloop
  endfacet
  facet normal 0 0 -1
    outer loop
      vertex 24.9 6 0
      vertex 12 8.46447 0
      vertex 15.5355 12 0
    endloop
  endfacet
  facet normal 0 0 -1
    outer loop
      vertex 0 0 0
      vertex 25.7216 4.33396 0
      vertex 25.95 4.18135 0
    endloop
  endfacet
  facet normal 0 0 -1
    outer loop
      vertex 0 0 0
      vertex 25.95 4.18135 0
      vertex 26.1964 4.05985 0
    endloop
  endfacet
  facet normal -0 0 -1
    outer loop
      vertex 26.4565 3.97156 0
      vertex 0 0 0
      vertex 26.1964 4.05985 0
    endloop
  endfacet
  facet normal 0 0 -1
    outer loop
      vertex 12 35 0
      vertex 8.08203 26.7259 0
      vertex 8.1 27 0
    endloop
  endfacet
  facet normal 0 0 -1
    outer loop
      vertex 12 15.5355 0
      vertex 8.02844 26.4565 0
      vertex 8.08203 26.7259 0
    endloop
  endfacet
  facet normal 0 0 -1
    outer loop
      vertex 12 15.5355 0
      vertex 7.94015 26.1964 0
      vertex 8.02844 26.4565 0
    endloop
  endfacet
  facet normal 0 0 -1
    outer loop
      vertex 12 15.5355 0
      vertex 7.81865 25.95 0
      vertex 7.94015 26.1964 0
    endloop
  endfacet
  facet normal 0 0 -1
    outer loop
      vertex 12 15.5355 0
      vertex 7.66604 25.7216 0
      vertex 7.81865 25.95 0
    endloop
  endfacet
  facet normal 0 0 -1
    outer loop
      vertex 12 15.5355 0
      vertex 7.48492 25.5151 0
      vertex 7.66604 25.7216 0
    endloop
  endfacet
  facet normal 0 0 -1
    outer loop
      vertex 12 15.5355 0
      vertex 7.2784 25.334 0
      vertex 7.48492 25.5151 0
    endloop
  endfacet
  facet normal 0 0 -1
    outer loop
      vertex 12 15.5355 0
      vertex 7.05 25.1813 0
      vertex 7.2784 25.334 0
    endloop
  endfacet
  facet normal 0 0 -1
    outer loop
      vertex 12 15.5355 0
      vertex 6.80363 25.0599 0
      vertex 7.05 25.1813 0
    endloop
  endfacet
  facet normal 0 0 -1
    outer loop
      vertex 12 15.5355 0
      vertex 6.54352 24.9716 0
      vertex 6.80363 25.0599 0
    endloop
  endfacet
  facet normal 0 0 -1
    outer loop
      vertex 12 15.5355 0
      vertex 6.2741 24.918 0
      vertex 6.54352 24.9716 0
    endloop
  endfacet
  facet normal 0 0 -1
    outer loop
      vertex 12 15.5355 0
      vertex 6 24.9 0
      vertex 6.2741 24.918 0
    endloop
  endfacet
  facet normal 0 0 -1
    outer loop
      vertex 8.46447 12 0
      vertex 5.72589 24.918 0
      vertex 6 24.9 0
    endloop
  endfacet
  facet normal 0 0 -1
    outer loop
      vertex 8.46447 12 0
      vertex 5.45648 24.9716 0
      vertex 5.72589 24.918 0
    endloop
  endfacet
  facet normal 0 0 -1
    outer loop
      vertex 8.46447 12 0
      vertex 5.19636 25.0599 0
      vertex 5.45648 24.9716 0
    endloop
  endfacet
  facet normal 0 0 -1
    outer loop
      vertex 8.46447 12 0
      vertex 4.95 25.1813 0
      vertex 5.19636 25.0599 0
    endloop
  endfacet
  facet normal 0 0 -1
    outer loop
      vertex 8.46447 12 0
      vertex 4.7216 25.334 0
      vertex 4.95 25.1813 0
    endloop
  endfacet
  facet normal 0 0 -1
    outer loop
      vertex 8.46447 12 0
      vertex 4.51508 25.5151 0
      vertex 4.7216 25.334 0
    endloop
  endfacet
  facet normal 0 0 -1
    outer loop
      vertex 0 0 0
      vertex 4.51508 25.5151 0
      vertex 8.46447 12 0
    endloop
  endfacet
  facet normal -0 0 -1
    outer loop
      vertex 4.51508 25.5151 0
      vertex 0 0 0
      vertex 4.33396 25.7216 0
    endloop
  endfacet
  facet normal -0 0 -1
    outer loop
      vertex 4.33396 25.7216 0
      vertex 0 0 0
      vertex 4.18135 25.95 0
    endloop
  endfacet
  facet normal -0 0 -1
    outer loop
      vertex 4.18135 25.95 0
      vertex 0 0 0
      vertex 4.05985 26.1964 0
    endloop
  endfacet
  facet normal 0 0 -1
    outer loop
      vertex 3.97156 26.4565 0
      vertex 0 35 0
      vertex 3.91796 26.7259 0
    endloop
  endfacet
  facet normal 0 0 -1
    outer loop
      vertex 0 35 0
      vertex 3.97156 26.4565 0
      vertex 0 0 0
    endloop
  endfacet
  facet normal -0 0 -1
    outer loop
      vertex 4.05985 26.1964 0
      vertex 0 0 0
      vertex 3.97156 26.4565 0
    endloop
  endfacet
  facet normal -0 0 -1
    outer loop
      vertex 12 8.46447 0
      vertex 0 0 0
      vertex 8.46447 12 0
    endloop
  endfacet
  facet normal -0 0 -1
    outer loop
      vertex 25.5151 4.51508 0
      vertex 0 0 0
      vertex 12 8.46447 0
    endloop
  endfacet
  facet normal 0 0 -1
    outer loop
      vertex 29.082 6.2741 0
      vertex 35 12 0
      vertex 29.1 6 0
    endloop
  endfacet
  facet normal 0 0 -1
    outer loop
      vertex 29.0284 6.54352 0
      vertex 35 12 0
      vertex 29.082 6.2741 0
    endloop
  endfacet
  facet normal 0 0 -1
    outer loop
      vertex 28.9401 6.80363 0
      vertex 35 12 0
      vertex 29.0284 6.54352 0
    endloop
  endfacet
  facet normal 0 0 -1
    outer loop
      vertex 28.8187 7.05 0
      vertex 35 12 0
      vertex 28.9401 6.80363 0
    endloop
  endfacet
  facet normal 0 0 -1
    outer loop
      vertex 28.666 7.2784 0
      vertex 35 12 0
      vertex 28.8187 7.05 0
    endloop
  endfacet
  facet normal 0 0 -1
    outer loop
      vertex 28.4849 7.48492 0
      vertex 35 12 0
      vertex 28.666 7.2784 0
    endloop
  endfacet
  facet normal 0 0 -1
    outer loop
      vertex 28.2784 7.66604 0
      vertex 35 12 0
      vertex 28.4849 7.48492 0
    endloop
  endfacet
  facet normal 0 0 -1
    outer loop
      vertex 28.05 7.81865 0
      vertex 35 12 0
      vertex 28.2784 7.66604 0
    endloop
  endfacet
  facet normal 0 0 -1
    outer loop
      vertex 27.8036 7.94015 0
      vertex 35 12 0
      vertex 28.05 7.81865 0
    endloop
  endfacet
  facet normal 0 0 -1
    outer loop
      vertex 27.5435 8.02844 0
      vertex 35 12 0
      vertex 27.8036 7.94015 0
    endloop
  endfacet
  facet normal 0 0 -1
    outer loop
      vertex 27.2741 8.08203 0
      vertex 35 12 0
      vertex 27.5435 8.02844 0
    endloop
  endfacet
  facet normal 0 0 -1
    outer loop
      vertex 27 8.1 0
      vertex 35 12 0
      vertex 27.2741 8.08203 0
    endloop
  endfacet
  facet normal 0 0 -1
    outer loop
      vertex 26.7259 8.08203 0
      vertex 35 12 0
      vertex 27 8.1 0
    endloop
  endfacet
  facet normal 0 0 -1
    outer loop
      vertex 15.5355 12 0
      vertex 26.7259 8.08203 0
      vertex 26.4565 8.02844 0
    endloop
  endfacet
  facet normal 0 0 -1
    outer loop
      vertex 15.5355 12 0
      vertex 26.4565 8.02844 0
      vertex 26.1964 7.94015 0
    endloop
  endfacet
  facet normal 0 0 -1
    outer loop
      vertex 26.7259 8.08203 0
      vertex 15.5355 12 0
      vertex 35 12 0
    endloop
  endfacet
  facet normal 0 0 -1
    outer loop
      vertex 25.95 7.81865 0
      vertex 15.5355 12 0
      vertex 26.1964 7.94015 0
    endloop
  endfacet
  facet normal 0 0 -1
    outer loop
      vertex 25.7216 7.66604 0
      vertex 15.5355 12 0
      vertex 25.95 7.81865 0
    endloop
  endfacet
  facet normal 0 0 -1
    outer loop
      vertex 25.5151 7.48492 0
      vertex 15.5355 12 0
      vertex 25.7216 7.66604 0
    endloop
  endfacet
  facet normal 0 0 -1
    outer loop
      vertex 25.334 7.2784 0
      vertex 15.5355 12 0
      vertex 25.5151 7.48492 0
    endloop
  endfacet
  facet normal 0 0 -1
    outer loop
      vertex 25.1813 7.05 0
      vertex 15.5355 12 0
      vertex 25.334 7.2784 0
    endloop
  endfacet
  facet normal 0 0 -1
    outer loop
      vertex 25.0599 6.80363 0
      vertex 15.5355 12 0
      vertex 25.1813 7.05 0
    endloop
  endfacet
  facet normal 0 0 -1
    outer loop
      vertex 24.9716 6.54352 0
      vertex 15.5355 12 0
      vertex 25.0599 6.80363 0
    endloop
  endfacet
  facet normal 0 0 -1
    outer loop
      vertex 24.918 6.2741 0
      vertex 15.5355 12 0
      vertex 24.9716 6.54352 0
    endloop
  endfacet
  facet normal 0 0 -1
    outer loop
      vertex 15.5355 12 0
      vertex 24.918 6.2741 0
      vertex 24.9 6 0
    endloop
  endfacet
  facet normal 0 0 -1
    outer loop
      vertex 6 24.9 0
      vertex 12 15.5355 0
      vertex 8.46447 12 0
    endloop
  endfacet
  facet normal 0 0 -1
    outer loop
      vertex 8.08203 26.7259 0
      vertex 12 35 0
      vertex 12 15.5355 0
    endloop
  endfacet
  facet normal 0 0 -1
    outer loop
      vertex 8.08203 27.2741 0
      vertex 12 35 0
      vertex 8.1 27 0
    endloop
  endfacet
  facet normal 0 0 -1
    outer loop
      vertex 8.02844 27.5435 0
      vertex 12 35 0
      vertex 8.08203 27.2741 0
    endloop
  endfacet
  facet normal 0 0 -1
    outer loop
      vertex 7.94015 27.8036 0
      vertex 12 35 0
      vertex 8.02844 27.5435 0
    endloop
  endfacet
  facet normal 0 0 -1
    outer loop
      vertex 7.81865 28.05 0
      vertex 12 35 0
      vertex 7.94015 27.8036 0
    endloop
  endfacet
  facet normal 0 0 -1
    outer loop
      vertex 7.66604 28.2784 0
      vertex 12 35 0
      vertex 7.81865 28.05 0
    endloop
  endfacet
  facet normal 0 0 -1
    outer loop
      vertex 7.48492 28.4849 0
      vertex 12 35 0
      vertex 7.66604 28.2784 0
    endloop
  endfacet
  facet normal 0 0 -1
    outer loop
      vertex 7.2784 28.666 0
      vertex 12 35 0
      vertex 7.48492 28.4849 0
    endloop
  endfacet
  facet normal 0 0 -1
    outer loop
      vertex 7.05 28.8187 0
      vertex 12 35 0
      vertex 7.2784 28.666 0
    endloop
  endfacet
  facet normal 0 0 -1
    outer loop
      vertex 6.80363 28.9401 0
      vertex 12 35 0
      vertex 7.05 28.8187 0
    endloop
  endfacet
  facet normal 0 0 -1
    outer loop
      vertex 6.54352 29.0284 0
      vertex 12 35 0
      vertex 6.80363 28.9401 0
    endloop
  endfacet
  facet normal 0 0 -1
    outer loop
      vertex 6.2741 29.082 0
      vertex 12 35 0
      vertex 6.54352 29.0284 0
    endloop
  endfacet
  facet normal 0 0 -1
    outer loop
      vertex 6 29.1 0
      vertex 12 35 0
      vertex 6.2741 29.082 0
    endloop
  endfacet
  facet normal 0 0 -1
    outer loop
      vertex 0 35 0
      vertex 6 29.1 0
      vertex 5.72589 29.082 0
    endloop
  endfacet
  facet normal 0 0 -1
    outer loop
      vertex 0 35 0
      vertex 5.72589 29.082 0
      vertex 5.45648 29.0284 0
    endloop
  endfacet
  facet normal 0 0 -1
    outer loop
      vertex 0 35 0
      vertex 5.45648 29.0284 0
      vertex 5.19636 28.9401 0
    endloop
  endfacet
  facet normal 0 0 -1
    outer loop
      vertex 0 35 0
      vertex 5.19636 28.9401 0
      vertex 4.95 28.8187 0
    endloop
  endfacet
  facet normal 0 0 -1
    outer loop
      vertex 0 35 0
      vertex 4.95 28.8187 0
      vertex 4.7216 28.666 0
    endloop
  endfacet
  facet normal 0 0 -1
    outer loop
      vertex 3.91796 26.7259 0
      vertex 0 35 0
      vertex 3.9 27 0
    endloop
  endfacet
  facet normal 0 0 -1
    outer loop
      vertex 6 29.1 0
      vertex 0 35 0
      vertex 12 35 0
    endloop
  endfacet
  facet normal 0 0 -1
    outer loop
      vertex 4.51508 28.4849 0
      vertex 0 35 0
      vertex 4.7216 28.666 0
    endloop
  endfacet
  facet normal 0 0 -1
    outer loop
      vertex 4.33396 28.2784 0
      vertex 0 35 0
      vertex 4.51508 28.4849 0
    endloop
  endfacet
  facet normal 0 0 -1
    outer loop
      vertex 4.18135 28.05 0
      vertex 0 35 0
      vertex 4.33396 28.2784 0
    endloop
  endfacet
  facet normal 0 0 -1
    outer loop
      vertex 4.05985 27.8036 0
      vertex 0 35 0
      vertex 4.18135 28.05 0
    endloop
  endfacet
  facet normal 0 0 -1
    outer loop
      vertex 3.97156 27.5435 0
      vertex 0 35 0
      vertex 4.05985 27.8036 0
    endloop
  endfacet
  facet normal 0 0 -1
    outer loop
      vertex 3.91796 27.2741 0
      vertex 0 35 0
      vertex 3.97156 27.5435 0
    endloop
  endfacet
  facet normal 0 0 -1
    outer loop
      vertex 3.9 27 0
      vertex 0 35 0
      vertex 3.91796 27.2741 0
    endloop
  endfacet
  facet normal 0 -1 0
    outer loop
      vertex 0 0 0
      vertex 35 0 8
      vertex 0 0 8
    endloop
  endfacet
  facet normal 0 -1 -0
    outer loop
      vertex 35 0 8
      vertex 0 0 0
      vertex 35 0 0
    endloop
  endfacet
  facet normal 0 1 0
    outer loop
      vertex 35 12 8
      vertex 15.5355 12 4
      vertex 12 12 8
    endloop
  endfacet
  facet normal 0 1 -0
    outer loop
      vertex 35 12 0
      vertex 15.5355 12 4
      vertex 35 12 8
    endloop
  endfacet
  facet normal 0 1 0
    outer loop
      vertex 15.5355 12 4
      vertex 35 12 0
      vertex 15.5355 12 0
    endloop
  endfacet
  facet normal 0 1 0
    outer loop
      vertex 12 12 8
      vertex 15.5355 12 4
      vertex 12 12 4
    endloop
  endfacet
  facet normal 1 0 0
    outer loop
      vertex 12 35 8
      vertex 12 15.5355 4
      vertex 12 35 0
    endloop
  endfacet
  facet normal 1 -0 0
    outer loop
      vertex 12 12 8
      vertex 12 15.5355 4
      vertex 12 35 8
    endloop
  endfacet
  facet normal 1 0 0
    outer loop
      vertex 12 15.5355 4
      vertex 12 12 8
      vertex 12 12 4
    endloop
  endfacet
  facet normal 1 0 0
    outer loop
      vertex 12 35 0
      vertex 12 15.5355 4
      vertex 12 15.5355 0
    endloop
  endfacet
  facet normal 0 1 -0
    outer loop
      vertex 12 35 0
      vertex 0 35 8
      vertex 12 35 8
    endloop
  endfacet
  facet normal 0 1 0
    outer loop
      vertex 0 35 8
      vertex 12 35 0
      vertex 0 35 0
    endloop
  endfacet
  facet normal -0.997851 -0.0655283 0
    outer loop
      vertex 29.1 6 0
      vertex 29.082 6.2741 8
      vertex 29.082 6.2741 0
    endloop
  endfacet
  facet normal -0.997851 -0.0655283 0
    outer loop
      vertex 29.082 6.2741 8
      vertex 29.1 6 0
      vertex 29.1 6 8
    endloop
  endfacet
  facet normal 0.0654196 -0.997858 0
    outer loop
      vertex 26.7259 8.08203 0
      vertex 27 8.1 8
      vertex 26.7259 8.08203 8
    endloop
  endfacet
  facet normal 0.0654196 -0.997858 0
    outer loop
      vertex 27 8.1 8
      vertex 26.7259 8.08203 0
      vertex 27 8.1 0
    endloop
  endfacet
  facet normal -0.0653833 0.99786 0
    outer loop
      vertex 27.2741 3.91796 0
      vertex 27 3.9 8
      vertex 27.2741 3.91796 8
    endloop
  endfacet
  facet normal -0.0653833 0.99786 0
    outer loop
      vertex 27 3.9 8
      vertex 27.2741 3.91796 0
      vertex 27 3.9 0
    endloop
  endfacet
  facet normal -0.659396 -0.751796 0
    outer loop
      vertex 28.2784 7.66604 0
      vertex 28.4849 7.48492 8
      vertex 28.2784 7.66604 8
    endloop
  endfacet
  facet normal -0.659396 -0.751796 -0
    outer loop
      vertex 28.4849 7.48492 8
      vertex 28.2784 7.66604 0
      vertex 28.4849 7.48492 0
    endloop
  endfacet
  facet normal 0.751864 -0.659319 0
    outer loop
      vertex 25.334 7.2784 8
      vertex 25.5151 7.48492 0
      vertex 25.5151 7.48492 8
    endloop
  endfacet
  facet normal 0.751864 -0.659319 0
    outer loop
      vertex 25.5151 7.48492 0
      vertex 25.334 7.2784 8
      vertex 25.334 7.2784 0
    endloop
  endfacet
  facet normal 0.442256 -0.896889 0
    outer loop
      vertex 25.95 7.81865 0
      vertex 26.1964 7.94015 8
      vertex 25.95 7.81865 8
    endloop
  endfacet
  facet normal 0.442256 -0.896889 0
    outer loop
      vertex 26.1964 7.94015 8
      vertex 25.95 7.81865 0
      vertex 26.1964 7.94015 0
    endloop
  endfacet
  facet normal -0.897012 -0.442007 0
    outer loop
      vertex 28.9401 6.80363 0
      vertex 28.8187 7.05 8
      vertex 28.8187 7.05 0
    endloop
  endfacet
  facet normal -0.897012 -0.442007 0
    outer loop
      vertex 28.8187 7.05 8
      vertex 28.9401 6.80363 0
      vertex 28.9401 6.80363 8
    endloop
  endfacet
  facet normal -0.831322 -0.555792 0
    outer loop
      vertex 28.8187 7.05 0
      vertex 28.666 7.2784 8
      vertex 28.666 7.2784 0
    endloop
  endfacet
  facet normal -0.831322 -0.555792 0
    outer loop
      vertex 28.666 7.2784 8
      vertex 28.8187 7.05 0
      vertex 28.8187 7.05 8
    endloop
  endfacet
  facet normal -0.321433 -0.946932 0
    outer loop
      vertex 27.5435 8.02844 0
      vertex 27.8036 7.94015 8
      vertex 27.5435 8.02844 8
    endloop
  endfacet
  facet normal -0.321433 -0.946932 -0
    outer loop
      vertex 27.8036 7.94015 8
      vertex 27.5435 8.02844 0
      vertex 27.8036 7.94015 0
    endloop
  endfacet
  facet normal -0.195101 -0.980783 0
    outer loop
      vertex 27.2741 8.08203 0
      vertex 27.5435 8.02844 8
      vertex 27.2741 8.08203 8
    endloop
  endfacet
  facet normal -0.195101 -0.980783 -0
    outer loop
      vertex 27.5435 8.02844 8
      vertex 27.2741 8.08203 0
      vertex 27.5435 8.02844 0
    endloop
  endfacet
  facet normal -0.555565 -0.831473 0
    outer loop
      vertex 28.05 7.81865 0
      vertex 28.2784 7.66604 8
      vertex 28.05 7.81865 8
    endloop
  endfacet
  facet normal -0.555565 -0.831473 -0
    outer loop
      vertex 28.2784 7.66604 8
      vertex 28.05 7.81865 0
      vertex 28.2784 7.66604 0
    endloop
  endfacet
  facet normal 0.897012 -0.442007 0
    outer loop
      vertex 25.0599 6.80363 8
      vertex 25.1813 7.05 0
      vertex 25.1813 7.05 8
    endloop
  endfacet
  facet normal 0.897012 -0.442007 0
    outer loop
      vertex 25.1813 7.05 0
      vertex 25.0599 6.80363 8
      vertex 25.0599 6.80363 0
    endloop
  endfacet
  facet normal 0.831322 -0.555792 0
    outer loop
      vertex 25.1813 7.05 8
      vertex 25.334 7.2784 0
      vertex 25.334 7.2784 8
    endloop
  endfacet
  facet normal 0.831322 -0.555792 0
    outer loop
      vertex 25.334 7.2784 0
      vertex 25.1813 7.05 8
      vertex 25.1813 7.05 0
    endloop
  endfacet
  facet normal 0.980779 -0.195122 0
    outer loop
      vertex 24.918 6.2741 8
      vertex 24.9716 6.54352 0
      vertex 24.9716 6.54352 8
    endloop
  endfacet
  facet normal 0.980779 -0.195122 0
    outer loop
      vertex 24.9716 6.54352 0
      vertex 24.918 6.2741 8
      vertex 24.918 6.2741 0
    endloop
  endfacet
  facet normal 0.555565 -0.831473 0
    outer loop
      vertex 25.7216 7.66604 0
      vertex 25.95 7.81865 8
      vertex 25.7216 7.66604 8
    endloop
  endfacet
  facet normal 0.555565 -0.831473 0
    outer loop
      vertex 25.95 7.81865 8
      vertex 25.7216 7.66604 0
      vertex 25.95 7.81865 0
    endloop
  endfacet
  facet normal 0.321433 -0.946932 0
    outer loop
      vertex 26.1964 7.94015 0
      vertex 26.4565 8.02844 8
      vertex 26.1964 7.94015 8
    endloop
  endfacet
  facet normal 0.321433 -0.946932 0
    outer loop
      vertex 26.4565 8.02844 8
      vertex 26.1964 7.94015 0
      vertex 26.4565 8.02844 0
    endloop
  endfacet
  facet normal -0.897005 0.442021 0
    outer loop
      vertex 28.8187 4.95 0
      vertex 28.9401 5.19636 8
      vertex 28.9401 5.19636 0
    endloop
  endfacet
  facet normal -0.897005 0.442021 0
    outer loop
      vertex 28.9401 5.19636 8
      vertex 28.8187 4.95 0
      vertex 28.8187 4.95 8
    endloop
  endfacet
  facet normal -0.751864 0.659319 0
    outer loop
      vertex 28.4849 4.51508 0
      vertex 28.666 4.7216 8
      vertex 28.666 4.7216 0
    endloop
  endfacet
  facet normal -0.751864 0.659319 0
    outer loop
      vertex 28.666 4.7216 8
      vertex 28.4849 4.51508 0
      vertex 28.4849 4.51508 8
    endloop
  endfacet
  facet normal -0.555565 0.831473 0
    outer loop
      vertex 28.2784 4.33396 0
      vertex 28.05 4.18135 8
      vertex 28.2784 4.33396 8
    endloop
  endfacet
  facet normal -0.555565 0.831473 0
    outer loop
      vertex 28.05 4.18135 8
      vertex 28.2784 4.33396 0
      vertex 28.05 4.18135 0
    endloop
  endfacet
  facet normal -0.831322 0.555792 0
    outer loop
      vertex 28.666 4.7216 0
      vertex 28.8187 4.95 8
      vertex 28.8187 4.95 0
    endloop
  endfacet
  facet normal -0.831322 0.555792 0
    outer loop
      vertex 28.8187 4.95 8
      vertex 28.666 4.7216 0
      vertex 28.666 4.7216 8
    endloop
  endfacet
  facet normal -0.980778 0.195129 0
    outer loop
      vertex 29.0284 5.45648 0
      vertex 29.082 5.72589 8
      vertex 29.082 5.72589 0
    endloop
  endfacet
  facet normal -0.980778 0.195129 0
    outer loop
      vertex 29.082 5.72589 8
      vertex 29.0284 5.45648 0
      vertex 29.0284 5.45648 8
    endloop
  endfacet
  facet normal 0.555565 0.831473 -0
    outer loop
      vertex 25.95 4.18135 0
      vertex 25.7216 4.33396 8
      vertex 25.95 4.18135 8
    endloop
  endfacet
  facet normal 0.555565 0.831473 0
    outer loop
      vertex 25.7216 4.33396 8
      vertex 25.95 4.18135 0
      vertex 25.7216 4.33396 0
    endloop
  endfacet
  facet normal 0.195136 0.980776 -0
    outer loop
      vertex 26.7259 3.91796 0
      vertex 26.4565 3.97156 8
      vertex 26.7259 3.91796 8
    endloop
  endfacet
  facet normal 0.195136 0.980776 0
    outer loop
      vertex 26.4565 3.97156 8
      vertex 26.7259 3.91796 0
      vertex 26.4565 3.97156 0
    endloop
  endfacet
  facet normal 0.831322 0.555792 0
    outer loop
      vertex 25.334 4.7216 8
      vertex 25.1813 4.95 0
      vertex 25.1813 4.95 8
    endloop
  endfacet
  facet normal 0.831322 0.555792 0
    outer loop
      vertex 25.1813 4.95 0
      vertex 25.334 4.7216 8
      vertex 25.334 4.7216 0
    endloop
  endfacet
  facet normal 0.751864 0.659319 0
    outer loop
      vertex 25.5151 4.51508 8
      vertex 25.334 4.7216 0
      vertex 25.334 4.7216 8
    endloop
  endfacet
  facet normal 0.751864 0.659319 0
    outer loop
      vertex 25.334 4.7216 0
      vertex 25.5151 4.51508 8
      vertex 25.5151 4.51508 0
    endloop
  endfacet
  facet normal -0.946925 -0.321454 0
    outer loop
      vertex 29.0284 6.54352 0
      vertex 28.9401 6.80363 8
      vertex 28.9401 6.80363 0
    endloop
  endfacet
  facet normal -0.946925 -0.321454 0
    outer loop
      vertex 28.9401 6.80363 8
      vertex 29.0284 6.54352 0
      vertex 29.0284 6.54352 8
    endloop
  endfacet
  facet normal -0.980779 -0.195122 0
    outer loop
      vertex 29.082 6.2741 0
      vertex 29.0284 6.54352 8
      vertex 29.0284 6.54352 0
    endloop
  endfacet
  facet normal -0.980779 -0.195122 0
    outer loop
      vertex 29.0284 6.54352 8
      vertex 29.082 6.2741 0
      vertex 29.082 6.2741 8
    endloop
  endfacet
  facet normal -0.0654196 -0.997858 0
    outer loop
      vertex 27 8.1 0
      vertex 27.2741 8.08203 8
      vertex 27 8.1 8
    endloop
  endfacet
  facet normal -0.0654196 -0.997858 -0
    outer loop
      vertex 27.2741 8.08203 8
      vertex 27 8.1 0
      vertex 27.2741 8.08203 0
    endloop
  endfacet
  facet normal 0.946925 -0.321454 0
    outer loop
      vertex 24.9716 6.54352 8
      vertex 25.0599 6.80363 0
      vertex 25.0599 6.80363 8
    endloop
  endfacet
  facet normal 0.946925 -0.321454 0
    outer loop
      vertex 25.0599 6.80363 0
      vertex 24.9716 6.54352 8
      vertex 24.9716 6.54352 0
    endloop
  endfacet
  facet normal 0.997851 -0.0655283 0
    outer loop
      vertex 24.9 6 8
      vertex 24.918 6.2741 0
      vertex 24.918 6.2741 8
    endloop
  endfacet
  facet normal 0.997851 -0.0655283 0
    outer loop
      vertex 24.918 6.2741 0
      vertex 24.9 6 8
      vertex 24.9 6 0
    endloop
  endfacet
  facet normal 0.195101 -0.980783 0
    outer loop
      vertex 26.4565 8.02844 0
      vertex 26.7259 8.08203 8
      vertex 26.4565 8.02844 8
    endloop
  endfacet
  facet normal 0.195101 -0.980783 0
    outer loop
      vertex 26.7259 8.08203 8
      vertex 26.4565 8.02844 0
      vertex 26.7259 8.08203 0
    endloop
  endfacet
  facet normal -0.997851 0.0655259 0
    outer loop
      vertex 29.082 5.72589 0
      vertex 29.1 6 8
      vertex 29.1 6 0
    endloop
  endfacet
  facet normal -0.997851 0.0655259 0
    outer loop
      vertex 29.1 6 8
      vertex 29.082 5.72589 0
      vertex 29.082 5.72589 8
    endloop
  endfacet
  facet normal -0.195136 0.980776 0
    outer loop
      vertex 27.5435 3.97156 0
      vertex 27.2741 3.91796 8
      vertex 27.5435 3.97156 8
    endloop
  endfacet
  facet normal -0.195136 0.980776 0
    outer loop
      vertex 27.2741 3.91796 8
      vertex 27.5435 3.97156 0
      vertex 27.2741 3.91796 0
    endloop
  endfacet
  facet normal -0.442256 0.896889 0
    outer loop
      vertex 28.05 4.18135 0
      vertex 27.8036 4.05985 8
      vertex 28.05 4.18135 8
    endloop
  endfacet
  facet normal -0.442256 0.896889 0
    outer loop
      vertex 27.8036 4.05985 8
      vertex 28.05 4.18135 0
      vertex 27.8036 4.05985 0
    endloop
  endfacet
  facet normal -0.659396 0.751796 0
    outer loop
      vertex 28.4849 4.51508 0
      vertex 28.2784 4.33396 8
      vertex 28.4849 4.51508 8
    endloop
  endfacet
  facet normal -0.659396 0.751796 0
    outer loop
      vertex 28.2784 4.33396 8
      vertex 28.4849 4.51508 0
      vertex 28.2784 4.33396 0
    endloop
  endfacet
  facet normal 0.442256 0.896889 -0
    outer loop
      vertex 26.1964 4.05985 0
      vertex 25.95 4.18135 8
      vertex 26.1964 4.05985 8
    endloop
  endfacet
  facet normal 0.442256 0.896889 0
    outer loop
      vertex 25.95 4.18135 8
      vertex 26.1964 4.05985 0
      vertex 25.95 4.18135 0
    endloop
  endfacet
  facet normal 0.0653833 0.99786 -0
    outer loop
      vertex 27 3.9 0
      vertex 26.7259 3.91796 8
      vertex 27 3.9 8
    endloop
  endfacet
  facet normal 0.0653833 0.99786 0
    outer loop
      vertex 26.7259 3.91796 8
      vertex 27 3.9 0
      vertex 26.7259 3.91796 0
    endloop
  endfacet
  facet normal 0.659396 0.751796 -0
    outer loop
      vertex 25.7216 4.33396 0
      vertex 25.5151 4.51508 8
      vertex 25.7216 4.33396 8
    endloop
  endfacet
  facet normal 0.659396 0.751796 0
    outer loop
      vertex 25.5151 4.51508 8
      vertex 25.7216 4.33396 0
      vertex 25.5151 4.51508 0
    endloop
  endfacet
  facet normal 0.897005 0.442021 0
    outer loop
      vertex 25.1813 4.95 8
      vertex 25.0599 5.19636 0
      vertex 25.0599 5.19636 8
    endloop
  endfacet
  facet normal 0.897005 0.442021 0
    outer loop
      vertex 25.0599 5.19636 0
      vertex 25.1813 4.95 8
      vertex 25.1813 4.95 0
    endloop
  endfacet
  facet normal 0.980778 0.195129 0
    outer loop
      vertex 24.9716 5.45648 8
      vertex 24.918 5.72589 0
      vertex 24.918 5.72589 8
    endloop
  endfacet
  facet normal 0.980778 0.195129 0
    outer loop
      vertex 24.918 5.72589 0
      vertex 24.9716 5.45648 8
      vertex 24.9716 5.45648 0
    endloop
  endfacet
  facet normal -0.751864 -0.659319 0
    outer loop
      vertex 28.666 7.2784 0
      vertex 28.4849 7.48492 8
      vertex 28.4849 7.48492 0
    endloop
  endfacet
  facet normal -0.751864 -0.659319 0
    outer loop
      vertex 28.4849 7.48492 8
      vertex 28.666 7.2784 0
      vertex 28.666 7.2784 8
    endloop
  endfacet
  facet normal -0.442256 -0.896889 0
    outer loop
      vertex 27.8036 7.94015 0
      vertex 28.05 7.81865 8
      vertex 27.8036 7.94015 8
    endloop
  endfacet
  facet normal -0.442256 -0.896889 -0
    outer loop
      vertex 28.05 7.81865 8
      vertex 27.8036 7.94015 0
      vertex 28.05 7.81865 0
    endloop
  endfacet
  facet normal 0.997851 0.0655259 0
    outer loop
      vertex 24.918 5.72589 8
      vertex 24.9 6 0
      vertex 24.9 6 8
    endloop
  endfacet
  facet normal 0.997851 0.0655259 0
    outer loop
      vertex 24.9 6 0
      vertex 24.918 5.72589 8
      vertex 24.918 5.72589 0
    endloop
  endfacet
  facet normal 0.659396 -0.751796 0
    outer loop
      vertex 25.5151 7.48492 0
      vertex 25.7216 7.66604 8
      vertex 25.5151 7.48492 8
    endloop
  endfacet
  facet normal 0.659396 -0.751796 0
    outer loop
      vertex 25.7216 7.66604 8
      vertex 25.5151 7.48492 0
      vertex 25.7216 7.66604 0
    endloop
  endfacet
  facet normal -0.321433 0.946932 0
    outer loop
      vertex 27.8036 4.05985 0
      vertex 27.5435 3.97156 8
      vertex 27.8036 4.05985 8
    endloop
  endfacet
  facet normal -0.321433 0.946932 0
    outer loop
      vertex 27.5435 3.97156 8
      vertex 27.8036 4.05985 0
      vertex 27.5435 3.97156 0
    endloop
  endfacet
  facet normal -0.946929 0.321443 0
    outer loop
      vertex 28.9401 5.19636 0
      vertex 29.0284 5.45648 8
      vertex 29.0284 5.45648 0
    endloop
  endfacet
  facet normal -0.946929 0.321443 0
    outer loop
      vertex 29.0284 5.45648 8
      vertex 28.9401 5.19636 0
      vertex 28.9401 5.19636 8
    endloop
  endfacet
  facet normal 0.321433 0.946932 -0
    outer loop
      vertex 26.4565 3.97156 0
      vertex 26.1964 4.05985 8
      vertex 26.4565 3.97156 8
    endloop
  endfacet
  facet normal 0.321433 0.946932 0
    outer loop
      vertex 26.1964 4.05985 8
      vertex 26.4565 3.97156 0
      vertex 26.1964 4.05985 0
    endloop
  endfacet
  facet normal 0.946929 0.321443 0
    outer loop
      vertex 25.0599 5.19636 8
      vertex 24.9716 5.45648 0
      vertex 24.9716 5.45648 8
    endloop
  endfacet
  facet normal 0.946929 0.321443 0
    outer loop
      vertex 24.9716 5.45648 0
      vertex 25.0599 5.19636 8
      vertex 25.0599 5.19636 0
    endloop
  endfacet
  facet normal -0.555792 -0.831322 0
    outer loop
      vertex 7.05 28.8187 0
      vertex 7.2784 28.666 8
      vertex 7.05 28.8187 8
    endloop
  endfacet
  facet normal -0.555792 -0.831322 -0
    outer loop
      vertex 7.2784 28.666 8
      vertex 7.05 28.8187 0
      vertex 7.2784 28.666 0
    endloop
  endfacet
  facet normal -0.980783 0.195101 0
    outer loop
      vertex 8.02844 26.4565 0
      vertex 8.08203 26.7259 8
      vertex 8.08203 26.7259 0
    endloop
  endfacet
  facet normal -0.980783 0.195101 0
    outer loop
      vertex 8.08203 26.7259 8
      vertex 8.02844 26.4565 0
      vertex 8.02844 26.4565 8
    endloop
  endfacet
  facet normal 0.195129 0.980778 -0
    outer loop
      vertex 5.72589 24.918 0
      vertex 5.45648 24.9716 8
      vertex 5.72589 24.918 8
    endloop
  endfacet
  facet normal 0.195129 0.980778 0
    outer loop
      vertex 5.45648 24.9716 8
      vertex 5.72589 24.918 0
      vertex 5.45648 24.9716 0
    endloop
  endfacet
  facet normal 0.442021 -0.897005 0
    outer loop
      vertex 4.95 28.8187 0
      vertex 5.19636 28.9401 8
      vertex 4.95 28.8187 8
    endloop
  endfacet
  facet normal 0.442021 -0.897005 0
    outer loop
      vertex 5.19636 28.9401 8
      vertex 4.95 28.8187 0
      vertex 5.19636 28.9401 0
    endloop
  endfacet
  facet normal 0.946932 -0.321433 0
    outer loop
      vertex 3.97156 27.5435 8
      vertex 4.05985 27.8036 0
      vertex 4.05985 27.8036 8
    endloop
  endfacet
  facet normal 0.946932 -0.321433 0
    outer loop
      vertex 4.05985 27.8036 0
      vertex 3.97156 27.5435 8
      vertex 3.97156 27.5435 0
    endloop
  endfacet
  facet normal -0.997858 0.0654196 0
    outer loop
      vertex 8.08203 26.7259 0
      vertex 8.1 27 8
      vertex 8.1 27 0
    endloop
  endfacet
  facet normal -0.997858 0.0654196 0
    outer loop
      vertex 8.1 27 8
      vertex 8.08203 26.7259 0
      vertex 8.08203 26.7259 8
    endloop
  endfacet
  facet normal 0.321443 0.946929 -0
    outer loop
      vertex 5.45648 24.9716 0
      vertex 5.19636 25.0599 8
      vertex 5.45648 24.9716 8
    endloop
  endfacet
  facet normal 0.321443 0.946929 0
    outer loop
      vertex 5.19636 25.0599 8
      vertex 5.45648 24.9716 0
      vertex 5.19636 25.0599 0
    endloop
  endfacet
  facet normal -0.896889 -0.442256 0
    outer loop
      vertex 7.94015 27.8036 0
      vertex 7.81865 28.05 8
      vertex 7.81865 28.05 0
    endloop
  endfacet
  facet normal -0.896889 -0.442256 0
    outer loop
      vertex 7.81865 28.05 8
      vertex 7.94015 27.8036 0
      vertex 7.94015 27.8036 8
    endloop
  endfacet
  facet normal -0.831473 -0.555565 0
    outer loop
      vertex 7.81865 28.05 0
      vertex 7.66604 28.2784 8
      vertex 7.66604 28.2784 0
    endloop
  endfacet
  facet normal -0.831473 -0.555565 0
    outer loop
      vertex 7.66604 28.2784 8
      vertex 7.81865 28.05 0
      vertex 7.81865 28.05 8
    endloop
  endfacet
  facet normal -0.321454 -0.946925 0
    outer loop
      vertex 6.54352 29.0284 0
      vertex 6.80363 28.9401 8
      vertex 6.54352 29.0284 8
    endloop
  endfacet
  facet normal -0.321454 -0.946925 -0
    outer loop
      vertex 6.80363 28.9401 8
      vertex 6.54352 29.0284 0
      vertex 6.80363 28.9401 0
    endloop
  endfacet
  facet normal -0.0655283 -0.997851 0
    outer loop
      vertex 6 29.1 0
      vertex 6.2741 29.082 8
      vertex 6 29.1 8
    endloop
  endfacet
  facet normal -0.0655283 -0.997851 -0
    outer loop
      vertex 6.2741 29.082 8
      vertex 6 29.1 0
      vertex 6.2741 29.082 0
    endloop
  endfacet
  facet normal 0.99786 -0.0653833 0
    outer loop
      vertex 3.9 27 8
      vertex 3.91796 27.2741 0
      vertex 3.91796 27.2741 8
    endloop
  endfacet
  facet normal 0.99786 -0.0653833 0
    outer loop
      vertex 3.91796 27.2741 0
      vertex 3.9 27 8
      vertex 3.9 27 0
    endloop
  endfacet
  facet normal 0.831473 -0.555565 0
    outer loop
      vertex 4.18135 28.05 8
      vertex 4.33396 28.2784 0
      vertex 4.33396 28.2784 8
    endloop
  endfacet
  facet normal 0.831473 -0.555565 0
    outer loop
      vertex 4.33396 28.2784 0
      vertex 4.18135 28.05 8
      vertex 4.18135 28.05 0
    endloop
  endfacet
  facet normal 0.555792 -0.831322 0
    outer loop
      vertex 4.7216 28.666 0
      vertex 4.95 28.8187 8
      vertex 4.7216 28.666 8
    endloop
  endfacet
  facet normal 0.555792 -0.831322 0
    outer loop
      vertex 4.95 28.8187 8
      vertex 4.7216 28.666 0
      vertex 4.95 28.8187 0
    endloop
  endfacet
  facet normal 0.321443 -0.946929 0
    outer loop
      vertex 5.19636 28.9401 0
      vertex 5.45648 29.0284 8
      vertex 5.19636 28.9401 8
    endloop
  endfacet
  facet normal 0.321443 -0.946929 0
    outer loop
      vertex 5.45648 29.0284 8
      vertex 5.19636 28.9401 0
      vertex 5.45648 29.0284 0
    endloop
  endfacet
  facet normal -0.946932 0.321433 0
    outer loop
      vertex 7.94015 26.1964 0
      vertex 8.02844 26.4565 8
      vertex 8.02844 26.4565 0
    endloop
  endfacet
  facet normal -0.946932 0.321433 0
    outer loop
      vertex 8.02844 26.4565 8
      vertex 7.94015 26.1964 0
      vertex 7.94015 26.1964 8
    endloop
  endfacet
  facet normal -0.442007 0.897012 0
    outer loop
      vertex 7.05 25.1813 0
      vertex 6.80363 25.0599 8
      vertex 7.05 25.1813 8
    endloop
  endfacet
  facet normal -0.442007 0.897012 0
    outer loop
      vertex 6.80363 25.0599 8
      vertex 7.05 25.1813 0
      vertex 6.80363 25.0599 0
    endloop
  endfacet
  facet normal -0.555792 0.831322 0
    outer loop
      vertex 7.2784 25.334 0
      vertex 7.05 25.1813 8
      vertex 7.2784 25.334 8
    endloop
  endfacet
  facet normal -0.555792 0.831322 0
    outer loop
      vertex 7.05 25.1813 8
      vertex 7.2784 25.334 0
      vertex 7.05 25.1813 0
    endloop
  endfacet
  facet normal 0.0655259 0.997851 -0
    outer loop
      vertex 6 24.9 0
      vertex 5.72589 24.918 8
      vertex 6 24.9 8
    endloop
  endfacet
  facet normal 0.0655259 0.997851 0
    outer loop
      vertex 5.72589 24.918 8
      vertex 6 24.9 0
      vertex 5.72589 24.918 0
    endloop
  endfacet
  facet normal 0.555792 0.831322 -0
    outer loop
      vertex 4.95 25.1813 0
      vertex 4.7216 25.334 8
      vertex 4.95 25.1813 8
    endloop
  endfacet
  facet normal 0.555792 0.831322 0
    outer loop
      vertex 4.7216 25.334 8
      vertex 4.95 25.1813 0
      vertex 4.7216 25.334 0
    endloop
  endfacet
  facet normal 0.831473 0.555565 0
    outer loop
      vertex 4.33396 25.7216 8
      vertex 4.18135 25.95 0
      vertex 4.18135 25.95 8
    endloop
  endfacet
  facet normal 0.831473 0.555565 0
    outer loop
      vertex 4.18135 25.95 0
      vertex 4.33396 25.7216 8
      vertex 4.33396 25.7216 0
    endloop
  endfacet
  facet normal -0.980783 -0.195101 0
    outer loop
      vertex 8.08203 27.2741 0
      vertex 8.02844 27.5435 8
      vertex 8.02844 27.5435 0
    endloop
  endfacet
  facet normal -0.980783 -0.195101 0
    outer loop
      vertex 8.02844 27.5435 8
      vertex 8.08203 27.2741 0
      vertex 8.08203 27.2741 8
    endloop
  endfacet
  facet normal -0.946932 -0.321433 0
    outer loop
      vertex 8.02844 27.5435 0
      vertex 7.94015 27.8036 8
      vertex 7.94015 27.8036 0
    endloop
  endfacet
  facet normal -0.946932 -0.321433 0
    outer loop
      vertex 7.94015 27.8036 8
      vertex 8.02844 27.5435 0
      vertex 8.02844 27.5435 8
    endloop
  endfacet
  facet normal -0.751796 -0.659396 0
    outer loop
      vertex 7.66604 28.2784 0
      vertex 7.48492 28.4849 8
      vertex 7.48492 28.4849 0
    endloop
  endfacet
  facet normal -0.751796 -0.659396 0
    outer loop
      vertex 7.48492 28.4849 8
      vertex 7.66604 28.2784 0
      vertex 7.66604 28.2784 8
    endloop
  endfacet
  facet normal -0.659319 -0.751864 0
    outer loop
      vertex 7.2784 28.666 0
      vertex 7.48492 28.4849 8
      vertex 7.2784 28.666 8
    endloop
  endfacet
  facet normal -0.659319 -0.751864 -0
    outer loop
      vertex 7.48492 28.4849 8
      vertex 7.2784 28.666 0
      vertex 7.48492 28.4849 0
    endloop
  endfacet
  facet normal 0.0655259 -0.997851 0
    outer loop
      vertex 5.72589 29.082 0
      vertex 6 29.1 8
      vertex 5.72589 29.082 8
    endloop
  endfacet
  facet normal 0.0655259 -0.997851 0
    outer loop
      vertex 6 29.1 8
      vertex 5.72589 29.082 0
      vertex 6 29.1 0
    endloop
  endfacet
  facet normal -0.442007 -0.897012 0
    outer loop
      vertex 6.80363 28.9401 0
      vertex 7.05 28.8187 8
      vertex 6.80363 28.9401 8
    endloop
  endfacet
  facet normal -0.442007 -0.897012 -0
    outer loop
      vertex 7.05 28.8187 8
      vertex 6.80363 28.9401 0
      vertex 7.05 28.8187 0
    endloop
  endfacet
  facet normal -0.195122 -0.980779 0
    outer loop
      vertex 6.2741 29.082 0
      vertex 6.54352 29.0284 8
      vertex 6.2741 29.082 8
    endloop
  endfacet
  facet normal -0.195122 -0.980779 -0
    outer loop
      vertex 6.54352 29.0284 8
      vertex 6.2741 29.082 0
      vertex 6.54352 29.0284 0
    endloop
  endfacet
  facet normal 0.99786 0.0653833 0
    outer loop
      vertex 3.91796 26.7259 8
      vertex 3.9 27 0
      vertex 3.9 27 8
    endloop
  endfacet
  facet normal 0.99786 0.0653833 0
    outer loop
      vertex 3.9 27 0
      vertex 3.91796 26.7259 8
      vertex 3.91796 26.7259 0
    endloop
  endfacet
  facet normal 0.980776 -0.195136 0
    outer loop
      vertex 3.91796 27.2741 8
      vertex 3.97156 27.5435 0
      vertex 3.97156 27.5435 8
    endloop
  endfacet
  facet normal 0.980776 -0.195136 0
    outer loop
      vertex 3.97156 27.5435 0
      vertex 3.91796 27.2741 8
      vertex 3.91796 27.2741 0
    endloop
  endfacet
  facet normal 0.896889 -0.442256 0
    outer loop
      vertex 4.05985 27.8036 8
      vertex 4.18135 28.05 0
      vertex 4.18135 28.05 8
    endloop
  endfacet
  facet normal 0.896889 -0.442256 0
    outer loop
      vertex 4.18135 28.05 0
      vertex 4.05985 27.8036 8
      vertex 4.05985 27.8036 0
    endloop
  endfacet
  facet normal 0.195129 -0.980778 0
    outer loop
      vertex 5.45648 29.0284 0
      vertex 5.72589 29.082 8
      vertex 5.45648 29.0284 8
    endloop
  endfacet
  facet normal 0.195129 -0.980778 0
    outer loop
      vertex 5.72589 29.082 8
      vertex 5.45648 29.0284 0
      vertex 5.72589 29.082 0
    endloop
  endfacet
  facet normal 0.659319 -0.751864 0
    outer loop
      vertex 4.51508 28.4849 0
      vertex 4.7216 28.666 8
      vertex 4.51508 28.4849 8
    endloop
  endfacet
  facet normal 0.659319 -0.751864 0
    outer loop
      vertex 4.7216 28.666 8
      vertex 4.51508 28.4849 0
      vertex 4.7216 28.666 0
    endloop
  endfacet
  facet normal 0.751796 -0.659396 0
    outer loop
      vertex 4.33396 28.2784 8
      vertex 4.51508 28.4849 0
      vertex 4.51508 28.4849 8
    endloop
  endfacet
  facet normal 0.751796 -0.659396 0
    outer loop
      vertex 4.51508 28.4849 0
      vertex 4.33396 28.2784 8
      vertex 4.33396 28.2784 0
    endloop
  endfacet
  facet normal -0.997858 -0.0654196 0
    outer loop
      vertex 8.1 27 0
      vertex 8.08203 27.2741 8
      vertex 8.08203 27.2741 0
    endloop
  endfacet
  facet normal -0.997858 -0.0654196 0
    outer loop
      vertex 8.08203 27.2741 8
      vertex 8.1 27 0
      vertex 8.1 27 8
    endloop
  endfacet
  facet normal -0.195122 0.980779 0
    outer loop
      vertex 6.54352 24.9716 0
      vertex 6.2741 24.918 8
      vertex 6.54352 24.9716 8
    endloop
  endfacet
  facet normal -0.195122 0.980779 0
    outer loop
      vertex 6.2741 24.918 8
      vertex 6.54352 24.9716 0
      vertex 6.2741 24.918 0
    endloop
  endfacet
  facet normal -0.831473 0.555565 0
    outer loop
      vertex 7.66604 25.7216 0
      vertex 7.81865 25.95 8
      vertex 7.81865 25.95 0
    endloop
  endfacet
  facet normal -0.831473 0.555565 0
    outer loop
      vertex 7.81865 25.95 8
      vertex 7.66604 25.7216 0
      vertex 7.66604 25.7216 8
    endloop
  endfacet
  facet normal -0.896889 0.442256 0
    outer loop
      vertex 7.81865 25.95 0
      vertex 7.94015 26.1964 8
      vertex 7.94015 26.1964 0
    endloop
  endfacet
  facet normal -0.896889 0.442256 0
    outer loop
      vertex 7.94015 26.1964 8
      vertex 7.81865 25.95 0
      vertex 7.81865 25.95 8
    endloop
  endfacet
  facet normal -0.321454 0.946925 0
    outer loop
      vertex 6.80363 25.0599 0
      vertex 6.54352 24.9716 8
      vertex 6.80363 25.0599 8
    endloop
  endfacet
  facet normal -0.321454 0.946925 0
    outer loop
      vertex 6.54352 24.9716 8
      vertex 6.80363 25.0599 0
      vertex 6.54352 24.9716 0
    endloop
  endfacet
  facet normal -0.659319 0.751864 0
    outer loop
      vertex 7.48492 25.5151 0
      vertex 7.2784 25.334 8
      vertex 7.48492 25.5151 8
    endloop
  endfacet
  facet normal -0.659319 0.751864 0
    outer loop
      vertex 7.2784 25.334 8
      vertex 7.48492 25.5151 0
      vertex 7.2784 25.334 0
    endloop
  endfacet
  facet normal -0.0655283 0.997851 0
    outer loop
      vertex 6.2741 24.918 0
      vertex 6 24.9 8
      vertex 6.2741 24.918 8
    endloop
  endfacet
  facet normal -0.0655283 0.997851 0
    outer loop
      vertex 6 24.9 8
      vertex 6.2741 24.918 0
      vertex 6 24.9 0
    endloop
  endfacet
  facet normal 0.442021 0.897005 -0
    outer loop
      vertex 5.19636 25.0599 0
      vertex 4.95 25.1813 8
      vertex 5.19636 25.0599 8
    endloop
  endfacet
  facet normal 0.442021 0.897005 0
    outer loop
      vertex 4.95 25.1813 8
      vertex 5.19636 25.0599 0
      vertex 4.95 25.1813 0
    endloop
  endfacet
  facet normal 0.896889 0.442256 0
    outer loop
      vertex 4.18135 25.95 8
      vertex 4.05985 26.1964 0
      vertex 4.05985 26.1964 8
    endloop
  endfacet
  facet normal 0.896889 0.442256 0
    outer loop
      vertex 4.05985 26.1964 0
      vertex 4.18135 25.95 8
      vertex 4.18135 25.95 0
    endloop
  endfacet
  facet normal 0.980776 0.195136 0
    outer loop
      vertex 3.97156 26.4565 8
      vertex 3.91796 26.7259 0
      vertex 3.91796 26.7259 8
    endloop
  endfacet
  facet normal 0.980776 0.195136 0
    outer loop
      vertex 3.91796 26.7259 0
      vertex 3.97156 26.4565 8
      vertex 3.97156 26.4565 0
    endloop
  endfacet
  facet normal 0.751796 0.659396 0
    outer loop
      vertex 4.51508 25.5151 8
      vertex 4.33396 25.7216 0
      vertex 4.33396 25.7216 8
    endloop
  endfacet
  facet normal 0.751796 0.659396 0
    outer loop
      vertex 4.33396 25.7216 0
      vertex 4.51508 25.5151 8
      vertex 4.51508 25.5151 0
    endloop
  endfacet
  facet normal -0.751796 0.659396 0
    outer loop
      vertex 7.48492 25.5151 0
      vertex 7.66604 25.7216 8
      vertex 7.66604 25.7216 0
    endloop
  endfacet
  facet normal -0.751796 0.659396 0
    outer loop
      vertex 7.66604 25.7216 8
      vertex 7.48492 25.5151 0
      vertex 7.48492 25.5151 8
    endloop
  endfacet
  facet normal 0.946932 0.321433 0
    outer loop
      vertex 4.05985 26.1964 8
      vertex 3.97156 26.4565 0
      vertex 3.97156 26.4565 8
    endloop
  endfacet
  facet normal 0.946932 0.321433 0
    outer loop
      vertex 3.97156 26.4565 0
      vertex 4.05985 26.1964 8
      vertex 4.05985 26.1964 0
    endloop
  endfacet
  facet normal 0.659319 0.751864 -0
    outer loop
      vertex 4.7216 25.334 0
      vertex 4.51508 25.5151 8
      vertex 4.7216 25.334 8
    endloop
  endfacet
  facet normal 0.659319 0.751864 0
    outer loop
      vertex 4.51508 25.5151 8
      vertex 4.7216 25.334 0
      vertex 4.51508 25.5151 0
    endloop
  endfacet
  facet normal 0 0 -1
    outer loop
      vertex 12 8.46447 4
      vertex 12 12 4
      vertex 15.5355 12 4
    endloop
  endfacet
  facet normal 0 0 -1
    outer loop
      vertex 8.46447 12 4
      vertex 12 12 4
      vertex 12 8.46447 4
    endloop
  endfacet
  facet normal 0 0 -1
    outer loop
      vertex 12 12 4
      vertex 8.46447 12 4
      vertex 12 15.5355 4
    endloop
  endfacet
  facet normal 0.707107 0.707107 0
    outer loop
      vertex 12 8.46447 4
      vertex 8.46447 12 0
      vertex 8.46447 12 4
    endloop
  endfacet
  facet normal 0.707107 0.707107 0
    outer loop
      vertex 8.46447 12 0
      vertex 12 8.46447 4
      vertex 12 8.46447 0
    endloop
  endfacet
  facet normal -0.70711 0.707104 0
    outer loop
      vertex 12 8.46447 0
      vertex 15.5355 12 4
      vertex 15.5355 12 0
    endloop
  endfacet
  facet normal -0.70711 0.707104 0
    outer loop
      vertex 15.5355 12 4
      vertex 12 8.46447 0
      vertex 12 8.46447 4
    endloop
  endfacet
  facet normal 0.707104 -0.70711 0
    outer loop
      vertex 8.46447 12 0
      vertex 12 15.5355 4
      vertex 8.46447 12 4
    endloop
  endfacet
  facet normal 0.707104 -0.70711 0
    outer loop
      vertex 12 15.5355 4
      vertex 8.46447 12 0
      vertex 12 15.5355 0
    endloop
  endfacet
endsolid OpenSCAD_Model
